<?xml version="1.0" encoding="utf-8"?>
<svg width="100px" height="72px" viewbox="0 0 100 72" version="1.1" xmlns:xlink="http://www.w3.org/1999/xlink" xmlns="http://www.w3.org/2000/svg">
  <g id="Lyzz" fill="#FFFFFF">
    <path d="M35.4219 36.5313L34.6094 37.875Q31.6094 42.7188 28.7969 45.5156Q25.9844 48.3125 22.2969 50.375L20.9531 49.9375Q18.5781 49.0938 16.875 48.7969Q15.1719 48.5 13.3594 48.5Q8.67188 48.5 8.67188 50.5Q8.67188 52.4063 13.9219 52.4063Q16.2656 52.4063 18.25 52.0625Q20.2344 51.7188 22.4219 50.9375Q27.3281 52.4063 30.9531 52.4063Q32.5469 52.4063 33.9375 52.0469Q35.3281 51.6875 36.7656 50.8438Q38.2031 50 40.2031 48.3125Q41.9736 46.8187 44.7969 44.272L44.7969 44.3438Q47.0781 42.4375 48.7656 41.1563Q50.4531 39.875 51.5156 39.875Q52.1406 39.875 52.1406 40.4375Q52.1406 41.5313 49.4531 43.5313Q47.9531 44.6563 47.0625 45.6094Q46.1719 46.5625 45.7656 47.5Q45.3594 48.4375 45.3594 49.4688Q45.3594 50.0625 45.7031 50.4063Q46.0469 50.75 46.5781 50.75Q47.4531 50.75 48.5938 50.25Q49.7344 49.75 51.2031 48.7344Q52.6719 47.7188 53.7344 46.9063Q54.7969 46.0938 58.1094 43.5313Q53.2344 48.875 50.1719 52.8125Q44.4219 55.4688 40.7031 57.8906Q36.9844 60.3125 35.2188 62.2969Q33.4531 64.2813 33.4531 65.5938Q33.4531 67.4063 35.3906 67.4063Q38.0156 67.4063 42.0469 63.625Q46.0781 59.8438 52.6094 52.5313L53.1719 51.9063Q57.2969 50.375 59.9844 48.625Q62.3852 47.0617 65.4844 44.2763L65.4844 44.3438L69.3906 41.0313Q69.8281 41.7813 71.2344 41.7813Q71.8906 41.7813 73.3594 41.5313L66.2344 47.5Q62.6719 49.4375 62.6719 50.3125Q62.6719 50.75 63.2969 50.75Q63.6406 50.75 64.0625 50.4063Q64.4844 50.0625 64.9219 49.5156Q65.3594 48.9688 65.7969 48.5Q68.4219 46.9063 69.9531 46.9063Q70.8206 46.9063 70.8861 47.1354Q70.9008 47.1869 70.875 47.25Q70.7344 47.5938 70.1406 47.9375Q69.1094 48.8438 69.1094 49.5938Q69.1094 50.1563 69.4688 50.4531Q69.8281 50.75 70.2656 50.75Q72.3092 50.75 78.9844 44.322L78.9844 44.3438L82.8906 41.0313Q83.3281 41.7813 84.7344 41.7813Q85.3906 41.7813 86.8594 41.5313L79.7344 47.5Q76.1719 49.4375 76.1719 50.3125Q76.1719 50.75 76.7969 50.75Q77.1406 50.75 77.5625 50.4063Q77.9844 50.0625 78.4219 49.5156Q78.8594 48.9688 79.2969 48.5Q81.9219 46.9063 83.4531 46.9063Q84.3206 46.9063 84.3861 47.1354Q84.4008 47.1869 84.375 47.25Q84.2344 47.5938 83.6406 47.9375Q82.6094 48.8438 82.6094 49.5938Q82.6094 50.1563 82.9688 50.4531Q83.3281 50.75 83.7656 50.75Q85.9219 50.75 93.2344 43.5938L93.2344 43.0625Q90.7031 45.5938 88 47.7969Q85.2969 50 84.6719 50Q84.5453 50 84.482 49.9367Q84.4047 49.8594 84.4219 49.6875Q84.4531 49.375 84.7344 49.0938Q85.4531 48.375 85.4531 47.8125Q85.4531 46.4688 83.7656 46.4688Q82.6094 46.4688 80.9531 46.9688L87.6719 41.2813Q91.8281 40.1875 91.8281 38.6563Q91.8281 38.3438 91.3906 38.3438Q90.7656 38.3438 89.2031 39.6875L88.1406 40.5938Q87.1719 41.3438 84.9219 41.3438Q83.9844 41.3438 83.5313 40.9844Q83.0781 40.625 83.2031 40.1875Q83.5156 40.5938 84.2969 40.5938Q84.6719 40.5938 84.8906 40.3438Q85.1094 40.0938 85.1094 39.6875Q85.1094 38.8438 84.2344 38.8438Q83.4531 38.8438 82.9375 39.4375Q82.4219 40.0313 82.6094 40.8438L79.7344 43.2231L79.7344 43.0625Q77.2031 45.5938 74.5 47.7969Q71.7969 50 71.1719 50Q71.0453 50 70.982 49.9367Q70.9047 49.8594 70.9219 49.6875Q70.9531 49.375 71.2344 49.0938Q71.9531 48.375 71.9531 47.8125Q71.9531 46.4688 70.2656 46.4688Q69.1094 46.4688 67.4531 46.9688L74.1719 41.2813Q78.3281 40.1875 78.3281 38.6563Q78.3281 38.3438 77.8906 38.3438Q77.2656 38.3438 75.7031 39.6875L74.6406 40.5938Q73.6719 41.3438 71.4219 41.3438Q70.4844 41.3438 70.0313 40.9844Q69.5781 40.625 69.7031 40.1875Q70.0156 40.5938 70.7969 40.5938Q71.1719 40.5938 71.3906 40.3438Q71.6094 40.0938 71.6094 39.6875Q71.6094 38.8438 70.7344 38.8438Q69.9531 38.8438 69.4375 39.4375Q68.9219 40.0313 69.1094 40.8438L66.2344 43.2231L66.2344 43.0625Q62.4219 46.375 59.9063 48.0469Q57.3906 49.7188 53.8906 51.125L63.9219 39.6875L61.5469 39.6875Q59.8594 41.375 56.7813 43.9219Q53.7031 46.4688 50.8438 48.3906Q47.9844 50.3125 46.8281 50.3125Q46.2656 50.3125 46.2656 49.8438Q46.2656 49.0938 48.9531 46.7188Q52.6719 43.4375 52.6719 40.7188Q52.6719 39.4375 51.7031 39.4375Q50.5156 39.4375 48.9063 40.5625Q47.5451 41.514 45.5469 43.2031L45.5469 43.0625Q40.7969 47.3125 38.6406 48.9844Q36.4844 50.6563 34.75 51.3125Q33.0156 51.9688 30.9531 51.9688Q26.8906 51.9688 23.0156 50.625Q26.0781 49.1875 28.375 47.5625Q30.6719 45.9375 32.3281 44.2344Q33.9844 42.5313 34.9063 41.3125Q35.8281 40.0938 38.6406 36.2188L39.1406 35.5313Q43.9531 34 48.1094 31.7969Q52.2656 29.5938 55.25 27.125Q58.2344 24.6563 59.8594 22.4063Q61.4844 20.1563 61.4844 18.625Q61.4844 16.5938 59.1094 16.5938Q55.2656 16.5938 50.7188 20.0313Q46.1719 23.4688 42.5781 27.5625Q38.9844 31.6563 36.0156 35.7188Q32.9531 36.625 30.5156 36.5313Q26.0781 36.4063 23.6563 34.625Q21.2344 32.8438 21.2344 29.6875Q21.2344 26.3125 23.7969 23.4531Q26.3594 20.5938 30.9219 18.8281Q35.4844 17.0625 41.0469 17.0313L41.0469 16.5938Q35.0781 16.5938 30.3438 18.4219Q25.6094 20.25 22.9688 23.2656Q20.3281 26.2813 20.3281 29.5Q20.3281 31.6875 21.4688 33.4375Q22.6094 35.1875 24.8125 36.1875Q27.0156 37.1875 30.1094 37.1875Q32.7344 37.1875 35.4219 36.5313ZM48.5313 30.875Q44.4531 33.25 39.3906 34.9375Q41.2656 31.4063 44.5781 27.2656Q47.8906 23.125 51.7656 20.1875Q55.6406 17.25 59.1094 17.0313Q59.8594 17 60.25 17.5313Q60.6406 18.0625 60.6406 18.8438Q60.6406 19.8125 59.25 21.8125Q57.8594 23.8125 55.2344 26.1563Q52.6094 28.5 48.5313 30.875ZM16.875 49.4219Q19.1719 49.875 21.4219 50.625Q17.9531 51.9688 13.8594 51.9688Q9.32813 51.9688 9.32813 50.5Q9.32813 49.8438 10.3125 49.4063Q11.2969 48.9688 13.0781 48.9688Q14.5781 48.9688 16.875 49.4219ZM38.4688 60.0625Q43.0156 56.7188 49.5781 53.4375Q48.8594 54.5 47.4375 56.2344Q46.0156 57.9688 44.7969 59.4688Q42.5156 62.1563 40.8125 63.7813Q39.1094 65.4063 37.7344 66.1719Q36.3594 66.9375 35.2656 66.9375Q34.7031 66.9375 34.3125 66.5781Q33.9219 66.2188 33.9219 65.6563Q33.9219 63.4063 38.4688 60.0625Z" />
  </g>
</svg>