<?xml version="1.0" encoding="utf-8"?>
<svg width="100px" height="72px" viewbox="0 0 100 72" version="1.1" xmlns:xlink="http://www.w3.org/1999/xlink" xmlns="http://www.w3.org/2000/svg">
  <defs>
    <path d="M0 0L100 0L100 72L0 72L0 0Z" id="path_1" />
    <clipPath id="mask_1">
      <use xlink:href="#path_1" />
    </clipPath>
  </defs>
  <g id="signature">
    <path d="M0 0L100 0L100 72L0 72L0 0Z" id="Background" fill="none" fill-rule="evenodd" stroke="none" />
    <g clip-path="url(#mask_1)">
      <g id="Lyzz" transform="translate(8.671875 16.593811)">
        <path d="M26.75 19.9375L25.9375 21.2812C23.9375 24.5104 22 27.0573 20.125 28.9218C18.25 30.7864 16.0834 32.4062 13.625 33.7812L12.2812 33.3437C10.6979 32.7812 9.33852 32.401 8.20312 32.2031C7.06772 32.0052 5.89585 31.9062 4.68752 31.9062C1.56251 31.9062 0 32.5729 0 33.9062C0 35.1771 1.75001 35.8125 5.25002 35.8125C6.81249 35.8125 8.25519 35.6979 9.57812 35.4687C10.9011 35.2396 12.2917 34.8646 13.75 34.3437C17.0208 35.3229 19.8646 35.8125 22.2812 35.8125C23.3438 35.8125 24.3386 35.6927 25.2656 35.4531C26.1927 35.2135 27.1354 34.8125 28.0937 34.25C29.0521 33.6875 30.1979 32.8437 31.5312 31.7187C32.7116 30.7228 34.2428 29.376 36.125 27.6782L36.125 27.75C37.6458 26.4791 38.9687 25.4166 40.0937 24.5625C41.2187 23.7083 42.1354 23.2812 42.8437 23.2812C43.2604 23.2812 43.4687 23.4687 43.4687 23.8437C43.4687 24.5729 42.5729 25.6042 40.7812 26.9375C39.7812 27.6875 38.9844 28.3802 38.3906 29.0156C37.7969 29.651 37.3646 30.2812 37.0937 30.9062C36.8229 31.5312 36.6875 32.1875 36.6875 32.875C36.6875 33.2708 36.8021 33.5833 37.0312 33.8125C37.2604 34.0416 37.5521 34.1562 37.9062 34.1562C38.4896 34.1562 39.1615 33.9895 39.9219 33.6562C40.6823 33.3229 41.5521 32.8177 42.5312 32.1406C43.5104 31.4635 44.3542 30.8542 45.0625 30.3125C45.7709 29.7708 47.2292 28.6458 49.4375 26.9375C46.1875 30.5 43.5417 33.5937 41.5 36.2187C37.6667 37.9896 34.5104 39.6823 32.0312 41.2968C29.5521 42.9114 27.724 44.3802 26.5469 45.7031C25.3698 47.026 24.7812 48.125 24.7812 49C24.7812 50.2083 25.4271 50.8125 26.7187 50.8125C28.4687 50.8125 30.6875 49.5521 33.375 47.0312C36.0625 44.5104 39.5833 40.8125 43.9375 35.9375L44.5 35.3125C47.25 34.2916 49.5209 33.1979 51.3125 32.0312C52.9131 30.989 54.7464 29.5394 56.8125 27.6825L56.8125 27.75L60.7187 24.4375C61.0104 24.9375 61.625 25.1875 62.5625 25.1875C63 25.1875 63.7083 25.1042 64.6875 24.9375L57.5625 30.9062C55.1875 32.1979 54 33.1354 54 33.7187C54 34.0104 54.2084 34.1562 54.625 34.1562C54.8542 34.1562 55.1094 34.0416 55.3906 33.8125C55.6719 33.5833 55.9584 33.2864 56.25 32.9218C56.5417 32.5573 56.8334 32.2187 57.125 31.9062C58.875 30.8437 60.2604 30.3125 61.2812 30.3125C61.8596 30.3125 62.1706 30.3889 62.2142 30.5416C62.224 30.5759 62.2203 30.6141 62.2031 30.6562C62.1094 30.8854 61.8646 31.1146 61.4687 31.3437C60.7813 31.9479 60.4375 32.5 60.4375 33C60.4375 33.375 60.5573 33.6614 60.7969 33.8593C61.0365 34.0572 61.3021 34.1562 61.5937 34.1562C62.9561 34.1562 65.8624 32.0135 70.3125 27.7282L70.3125 27.75L74.2187 24.4375C74.5104 24.9375 75.125 25.1875 76.0625 25.1875C76.5 25.1875 77.2083 25.1042 78.1875 24.9375L71.0625 30.9062C68.6875 32.1979 67.5 33.1354 67.5 33.7187C67.5 34.0104 67.7084 34.1562 68.125 34.1562C68.3541 34.1562 68.6094 34.0416 68.8906 33.8125C69.1719 33.5833 69.4584 33.2864 69.75 32.9218C70.0417 32.5573 70.3334 32.2187 70.625 31.9062C72.375 30.8437 73.7604 30.3125 74.7812 30.3125C75.3596 30.3125 75.6706 30.3889 75.7142 30.5416C75.724 30.5759 75.7203 30.6141 75.7031 30.6562C75.6094 30.8854 75.3646 31.1146 74.9687 31.3437C74.2813 31.9479 73.9375 32.5 73.9375 33C73.9375 33.375 74.0573 33.6614 74.2969 33.8593C74.5365 34.0572 74.8021 34.1562 75.0937 34.1562C76.5313 34.1562 79.6875 31.7708 84.5625 27L84.5625 26.4687C82.875 28.1562 81.1302 29.7344 79.3281 31.2031C77.526 32.6718 76.4167 33.4062 76 33.4062C75.9156 33.4062 75.8523 33.3851 75.8101 33.3429C75.7586 33.2914 75.7385 33.2083 75.75 33.0937C75.7708 32.8854 75.875 32.6875 76.0625 32.5C76.5416 32.0208 76.7812 31.5937 76.7812 31.2187C76.7812 30.3229 76.2187 29.875 75.0937 29.875C74.3229 29.875 73.3854 30.0417 72.2812 30.375L79 24.6875C81.7708 23.9583 83.1562 23.0833 83.1562 22.0625C83.1562 21.8542 83.0104 21.75 82.7187 21.75C82.3021 21.75 81.5729 22.1979 80.5312 23.0937L79.4687 24C78.8229 24.5 77.75 24.75 76.25 24.75C75.625 24.75 75.1615 24.6302 74.8594 24.3906C74.5573 24.151 74.4479 23.8854 74.5312 23.5937C74.7396 23.8646 75.1041 24 75.625 24C75.875 24 76.0729 23.9167 76.2187 23.75C76.3646 23.5833 76.4375 23.3646 76.4375 23.0937C76.4375 22.5312 76.1459 22.25 75.5625 22.25C75.0416 22.25 74.6094 22.4479 74.2656 22.8437C73.9219 23.2396 73.8125 23.7083 73.9375 24.25L71.0625 26.6293L71.0625 26.4687C69.375 28.1562 67.6302 29.7344 65.8281 31.2031C64.026 32.6718 62.9167 33.4062 62.5 33.4062C62.4156 33.4062 62.3523 33.3851 62.3101 33.3429C62.2586 33.2914 62.2386 33.2083 62.25 33.0937C62.2708 32.8854 62.375 32.6875 62.5625 32.5C63.0417 32.0208 63.2812 31.5937 63.2812 31.2187C63.2812 30.3229 62.7187 29.875 61.5937 29.875C60.8229 29.875 59.8854 30.0417 58.7812 30.375L65.5 24.6875C68.2708 23.9583 69.6562 23.0833 69.6562 22.0625C69.6562 21.8542 69.5104 21.75 69.2187 21.75C68.8021 21.75 68.0729 22.1979 67.0312 23.0937L65.9687 24C65.3229 24.5 64.25 24.75 62.75 24.75C62.125 24.75 61.6615 24.6302 61.3594 24.3906C61.0573 24.151 60.9479 23.8854 61.0312 23.5937C61.2396 23.8646 61.6042 24 62.125 24C62.375 24 62.5729 23.9167 62.7187 23.75C62.8646 23.5833 62.9375 23.3646 62.9375 23.0937C62.9375 22.5312 62.6459 22.25 62.0625 22.25C61.5417 22.25 61.1094 22.4479 60.7656 22.8437C60.4219 23.2396 60.3125 23.7083 60.4375 24.25L57.5625 26.6293L57.5625 26.4687C55.0209 28.677 52.9115 30.3385 51.2344 31.4531C49.5573 32.5677 47.5521 33.5937 45.2187 34.5312L55.25 23.0937L52.875 23.0937C51.75 24.2187 50.1615 25.6302 48.1094 27.3281C46.0573 29.026 44.0781 30.5156 42.1719 31.7968C40.2657 33.0781 38.9271 33.7187 38.1562 33.7187C37.7812 33.7187 37.5937 33.5625 37.5937 33.25C37.5937 32.75 38.4896 31.7083 40.2812 30.125C42.7604 27.9375 44 25.9375 44 24.125C44 23.2708 43.6771 22.8437 43.0312 22.8437C42.2396 22.8437 41.3073 23.2187 40.2344 23.9687C39.327 24.603 38.2072 25.4832 36.875 26.6093L36.875 26.4687C33.7084 29.302 31.4063 31.276 29.9687 32.3906C28.5313 33.5052 27.2344 34.2812 26.0781 34.7187C24.9219 35.1562 23.6562 35.375 22.2812 35.375C19.5729 35.375 16.9271 34.9271 14.3437 34.0312C16.3854 33.0729 18.1719 32.052 19.7031 30.9687C21.2344 29.8854 22.5521 28.776 23.6562 27.6406C24.7604 26.5052 25.6198 25.5312 26.2344 24.7187C26.849 23.9062 28.0937 22.2083 29.9687 19.625L30.4687 18.9375C33.6771 17.9166 36.6667 16.6718 39.4375 15.2031C42.2083 13.7344 44.5885 12.1771 46.5781 10.5312C48.5677 8.8854 50.1042 7.3125 51.1875 5.8125C52.2709 4.3125 52.8125 3.05207 52.8125 2.0312C52.8125 0.677067 52.0209 0 50.4375 0C47.875 0 45.0781 1.14583 42.0469 3.4375C39.0157 5.72917 36.3021 8.23957 33.9062 10.9687C31.5104 13.6979 29.3229 16.4167 27.3437 19.125C25.3021 19.7291 23.4687 20 21.8437 19.9375C18.8854 19.8542 16.599 19.2187 14.9844 18.0312C13.3698 16.8437 12.5625 15.1979 12.5625 13.0937C12.5625 10.8437 13.4167 8.76557 15.125 6.8593C16.8334 4.9531 19.2084 3.41143 22.25 2.2343C25.2917 1.05723 28.6667 0.4583 32.375 0.4375L32.375 0C28.3958 0 24.8281 0.609367 21.6719 1.8281C18.5157 3.04683 16.0573 4.6614 14.2969 6.6718C12.5365 8.68227 11.6562 10.7604 11.6562 12.9062C11.6562 14.3645 12.0365 15.677 12.7969 16.8437C13.5573 18.0104 14.6719 18.927 16.1406 19.5937C17.6094 20.2604 19.375 20.5937 21.4375 20.5937C23.1875 20.5937 24.9584 20.375 26.75 19.9375L26.75 19.9375ZM39.8594 14.2812C37.1406 15.8645 34.0937 17.2187 30.7187 18.3437C31.9687 15.9896 33.6979 13.4323 35.9062 10.6718C38.1146 7.9114 40.5104 5.55203 43.0937 3.5937C45.6771 1.63537 48.125 0.5833 50.4375 0.4375C50.9375 0.416634 51.3177 0.5833 51.5781 0.9375C51.8385 1.29163 51.9687 1.72913 51.9687 2.25C51.9687 2.8958 51.5052 3.88537 50.5781 5.2187C49.6511 6.55203 48.3125 7.99997 46.5625 9.5625C44.8125 11.125 42.5782 12.6979 39.8594 14.2812L39.8594 14.2812ZM8.20312 32.8281C9.73439 33.1302 11.25 33.5312 12.75 34.0312C10.4375 34.9271 7.91665 35.375 5.18752 35.375C2.16667 35.375 0.65625 34.8854 0.65625 33.9062C0.65625 33.4687 0.984373 33.1042 1.64062 32.8125C2.29689 32.5208 3.21875 32.375 4.40622 32.375C5.40622 32.375 6.67185 32.526 8.20312 32.8281L8.20312 32.8281ZM29.7969 43.4687C32.8281 41.2396 36.5312 39.0312 40.9062 36.8437C40.4271 37.552 39.7136 38.4843 38.7656 39.6406C37.8177 40.7969 36.9375 41.875 36.125 42.875C34.6042 44.6667 33.276 46.1042 32.1406 47.1875C31.0052 48.2708 29.9792 49.0677 29.0625 49.5781C28.1459 50.0885 27.3229 50.3437 26.5937 50.3437C26.2187 50.3437 25.901 50.2239 25.6406 49.9843C25.3802 49.7448 25.25 49.4375 25.25 49.0625C25.25 47.5625 26.7657 45.6979 29.7969 43.4687L29.7969 43.4687Z" id="Shape" fill="#000000" fill-rule="evenodd" stroke="none" />
      </g>
    </g>
  </g>
</svg>