<?xml version="1.0" encoding="utf-8"?>
<!-- Generator: Adobe Illustrator 21.0.0, SVG Export Plug-In . SVG Version: 6.00 Build 0)  -->
<svg version="1.1" id="Layer_1" xmlns="http://www.w3.org/2000/svg" xmlns:xlink="http://www.w3.org/1999/xlink" x="0px" y="0px"
	 viewBox="0 0 16 16" style="enable-background:new 0 0 16 16;" xml:space="preserve">
<style type="text/css">
	.st0{fill:#2196F3;}
	.st1{fill:#FAFAFA;}
</style>
<path class="st0" d="M8,0C3.6,0,0,3.6,0,8s3.6,8,8,8s8-3.6,8-8S12.4,0,8,0z"/>
<path class="st1" d="M11.7,6.3l-4.3,4.3c-0.1,0.1-0.3,0.2-0.5,0.2s-0.3-0.1-0.5-0.2L4.3,8.5C4,8.2,4,7.8,4.3,7.5
	c0.3-0.3,0.7-0.3,0.9,0l1.7,1.7l3.9-3.9c0.3-0.3,0.7-0.3,0.9,0C12,5.6,12,6,11.7,6.3z"/>
</svg>
