<?xml version="1.0" encoding="utf-8"?>
<!-- Generator: Adobe Illustrator 21.0.0, SVG Export Plug-In . SVG Version: 6.00 Build 0)  -->
<svg version="1.1" id="Layer_1" xmlns="http://www.w3.org/2000/svg" xmlns:xlink="http://www.w3.org/1999/xlink" x="0px" y="0px"
	 viewBox="0 0 512 512" style="enable-background:new 0 0 512 512;" xml:space="preserve">
<style type="text/css">
	.st0{fill:#BDDBF4;}
	.st1{fill:#FFFFFF;}
</style>
<g>
	<circle class="st0" cx="256" cy="256" r="252"/>
</g>
<path class="st1" d="M296.4,245c16.3-12.3,26.9-31.8,26.9-53.8c0-37.1-30.2-67.3-67.3-67.3c-37.1,0-67.3,30.2-67.3,67.3
	c0,22,10.6,41.5,26.9,53.8c-43.7,16.4-74.9,58.6-74.9,108h20.8c0-52.1,42.4-94.4,94.4-94.4c52.1,0,94.4,42.4,94.4,94.4h20.8
	C371.3,303.6,340.1,261.4,296.4,245z M209.5,191.3c0-25.6,20.8-46.5,46.5-46.5s46.5,20.8,46.5,46.5s-20.8,46.5-46.5,46.5
	S209.5,216.9,209.5,191.3z"/>
</svg>
